# xmcd CD database file
#
# Track frame offsets:
#	150
#	3380
#	33152
#	38047
#	100946
#	208011
#	263989
#	300252
#	334855
#
# Disc length: 4663 seconds
#
# Revision: 0
# Processed by: cddbd v1.5.2PL0 Copyright (c) Steve Scherf et al.
# Submitted via: CDex 1.51
#
DISCID=6c123509
DTITLE=Kriegel, Volker Kriegel - Two Concerts - Lagos
DYEAR=2019
DGENRE=Jazz
TTITLE0=Welcome by Local Host [Live]
TTITLE1=Hot Nuts [Live]
TTITLE2=Band Introduction by Volker Kriegel [Live]
TTITLE3=Oriente [Live]
TTITLE4=Elastic Menu [Live]
TTITLE5=Bahia Next Year [Live]
TTITLE6=Mindwill and Funk You Very Much [Live]
TTITLE7=Lagos Jam 1 [Live]
TTITLE8=Lagos Jam 2 [Live]
EXTD=YEAR: 2019
EXTT0=
EXTT1=
EXTT2=
EXTT3=
EXTT4=
EXTT5=
EXTT6=
EXTT7=
EXTT8=
PLAYORDER=
